# xmcd CD database file
#
# Track frame offsets:
#	150
#	13706
#	28820
#	43268
#	60510
#	76309
#	92605
#	110587
#	125039
#	141749
#	160895
#	175348
#
# Disc length: 2594 seconds
#
# Revision: 3
# Processed by: cddbd v1.5.2PL0 Copyright (c) Steve Scherf et al.
# Submitted via: CDex 1.70beta2
#
DISCID=a80a200c
DTITLE=Linda Feller - linda cd
DYEAR=2005
DGENRE=Country
TTITLE0=Papa stell dein Bier hin
TTITLE1=Er muss mich wirklich
TTITLE2=Wer ruft denn da
TTITLE3=Langsam aber sicher
TTITLE4=Fuer Immer Mann
TTITLE5=Pass auf wo du
TTITLE6=Du gabst ihr deinen Namen
TTITLE7=Sorry mein Herz hat zu
TTITLE8=Die gluecklichste Frau#09
TTITLE9=Musst keinem was beweisen
TTITLE10=So gut wie du
TTITLE11=Koennten Waende redn#01
EXTD=YEAR: 2005
EXTT0=
EXTT1=
EXTT2=
EXTT3=
EXTT4=
EXTT5=
EXTT6=
EXTT7=
EXTT8=
EXTT9=
EXTT10=
EXTT11=
PLAYORDER=
